name ./resultDataOpenSim/trcMotMarkerGrf/sub09/grf-03-01.mot
datacolumns 19
datarows 10
range 1.42800000 1.46400000
endheader

                time	     ground_force_vx	     ground_force_vy	     ground_force_vz	     ground_force_px	     ground_force_py	     ground_force_pz	   l_ground_force_vx	   l_ground_force_vy	   l_ground_force_vz	   l_ground_force_px	   l_ground_force_py	   l_ground_force_pz	     ground_torque_x	     ground_torque_y	     ground_torque_z	   l_ground_torque_x	   l_ground_torque_y	   l_ground_torque_z	
          1.42800000	        -58.54706055	        473.57848154	        -19.13979398	          0.95052002	          0.00000000	          0.08328446	          0.00000000	          0.00000000	          0.00000000	          0.00000000	          0.00000000	          0.00000000	          0.00000000	          2.73190590	          0.00000000	          0.00000000	          0.00000000	          0.00000000	
          1.43200000	        -55.41902737	        469.46018319	        -20.58776049	          0.95310045	          0.00000000	          0.08317595	          0.00000000	          0.00000000	          0.00000000	          0.00000000	          0.00000000	          0.00000000	          0.00000000	          2.73748253	          0.00000000	          0.00000000	          0.00000000	          0.00000000	
          1.43600000	        -50.83470753	        466.01940985	        -21.44829951	          0.95531404	          0.00000000	          0.08308489	          0.00000000	          0.00000000	          0.00000000	          0.00000000	          0.00000000	          0.00000000	          0.00000000	          2.70141498	          0.00000000	          0.00000000	          0.00000000	          0.00000000	
          1.44000000	        -45.82526427	        463.29788449	        -21.42226069	          0.95727838	          0.00000000	          0.08300502	          0.00000000	          0.00000000	          0.00000000	          0.00000000	          0.00000000	          0.00000000	          0.00000000	          2.65850665	          0.00000000	          0.00000000	          0.00000000	          0.00000000	
          1.44400000	        -41.47218041	        461.30600350	        -20.40549455	          0.95914249	          0.00000000	          0.08291423	          0.00000000	          0.00000000	          0.00000000	          0.00000000	          0.00000000	          0.00000000	          0.00000000	          2.64334645	          0.00000000	          0.00000000	          0.00000000	          0.00000000	
          1.44800000	        -38.62093601	        460.01581775	        -18.48984882	          0.96104703	          0.00000000	          0.08278947	          0.00000000	          0.00000000	          0.00000000	          0.00000000	          0.00000000	          0.00000000	          0.00000000	          2.68165907	          0.00000000	          0.00000000	          0.00000000	          0.00000000	
          1.45200000	        -37.67410522	        459.36328179	        -15.92950540	          0.96306873	          0.00000000	          0.08261874	          0.00000000	          0.00000000	          0.00000000	          0.00000000	          0.00000000	          0.00000000	          0.00000000	          2.78384309	          0.00000000	          0.00000000	          0.00000000	          0.00000000	
          1.45600000	        -38.51271936	        459.25065443	        -13.08656998	          0.96521262	          0.00000000	          0.08240587	          0.00000000	          0.00000000	          0.00000000	          0.00000000	          0.00000000	          0.00000000	          0.00000000	          2.94184015	          0.00000000	          0.00000000	          0.00000000	          0.00000000	
          1.46000000	        -40.55631824	        459.55245883	        -10.37026643	          0.96742214	          0.00000000	          0.08217268	          0.00000000	          0.00000000	          0.00000000	          0.00000000	          0.00000000	          0.00000000	          0.00000000	          3.13030243	          0.00000000	          0.00000000	          0.00000000	          0.00000000	
          1.46400000	        -42.93734797	        460.13669808	         -8.17267840	          0.96958343	          0.00000000	          0.08194907	          0.00000000	          0.00000000	          0.00000000	          0.00000000	          0.00000000	          0.00000000	          0.00000000	          3.31238601	          0.00000000	          0.00000000	          0.00000000	          0.00000000	
